<svg width="20" height="20" viewBox="0 0 20 20" fill="none" xmlns="http://www.w3.org/2000/svg">
<path fill-rule="evenodd" clip-rule="evenodd" d="M13.8498 0.501136C14.4808 0.501136 15.1108 0.590136 15.7098 0.791136C19.4008 1.99114 20.7308 6.04114 19.6198 9.58114C18.9898 11.3901 17.9598 13.0411 16.6108 14.3901C14.6798 16.2601 12.5608 17.9201 10.2798 19.3501L10.0298 19.5011L9.76977 19.3401C7.48077 17.9201 5.34977 16.2601 3.40077 14.3801C2.06077 13.0311 1.02977 11.3901 0.389772 9.58114C-0.740228 6.04114 0.589773 1.99114 4.32077 0.770136C4.61077 0.670136 4.90977 0.600136 5.20977 0.561136H5.32977C5.61077 0.520136 5.88977 0.501136 6.16977 0.501136H6.27977C6.90977 0.520136 7.51977 0.630136 8.11077 0.831136H8.16977C8.20977 0.850136 8.23977 0.871136 8.25977 0.890136C8.48077 0.961136 8.68977 1.04114 8.88977 1.15114L9.26977 1.32114C9.36159 1.37011 9.46466 1.44494 9.55373 1.50961C9.61017 1.55058 9.66099 1.58748 9.69977 1.61114C9.71609 1.62076 9.73268 1.63044 9.7494 1.6402C9.83514 1.69026 9.92446 1.7424 9.99977 1.80014C11.1108 0.951136 12.4598 0.491136 13.8498 0.501136ZM16.5098 7.70114C16.9198 7.69014 17.2698 7.36114 17.2998 6.94014V6.82114C17.3298 5.42014 16.4808 4.15114 15.1898 3.66114C14.7798 3.52014 14.3298 3.74114 14.1798 4.16114C14.0398 4.58114 14.2598 5.04114 14.6798 5.19014C15.3208 5.43014 15.7498 6.06114 15.7498 6.76014V6.79114C15.7308 7.02014 15.7998 7.24114 15.9398 7.41114C16.0798 7.58114 16.2898 7.68014 16.5098 7.70114Z" fill="#F52A36"/>
</svg>
