<svg width="55" height="22" viewBox="0 0 55 22" fill="none" xmlns="http://www.w3.org/2000/svg">
<rect width="55" height="22" rx="11" fill="#F52A36" fill-opacity="0.2"/>
<path d="M9.58531 8H10.3253V14.36H14.2453V15H9.58531V8ZM15.324 9.74H16.034V15H15.324V9.74ZM15.684 8.59C15.5373 8.59 15.414 8.54 15.314 8.44C15.214 8.34 15.164 8.22 15.164 8.08C15.164 7.94667 15.214 7.83 15.314 7.73C15.414 7.63 15.5373 7.58 15.684 7.58C15.8307 7.58 15.954 7.63 16.054 7.73C16.154 7.82333 16.204 7.93667 16.204 8.07C16.204 8.21667 16.154 8.34 16.054 8.44C15.954 8.54 15.8307 8.59 15.684 8.59ZM24.5695 9.7C25.2295 9.7 25.7462 9.89 26.1195 10.27C26.4995 10.65 26.6895 11.21 26.6895 11.95V15H25.9795V12.02C25.9795 11.4733 25.8462 11.0567 25.5795 10.77C25.3195 10.4833 24.9495 10.34 24.4695 10.34C23.9229 10.34 23.4929 10.51 23.1795 10.85C22.8662 11.1833 22.7095 11.6467 22.7095 12.24V15H21.9995V12.02C21.9995 11.4733 21.8662 11.0567 21.5995 10.77C21.3395 10.4833 20.9662 10.34 20.4795 10.34C19.9395 10.34 19.5095 10.51 19.1895 10.85C18.8762 11.1833 18.7195 11.6467 18.7195 12.24V15H18.0095V9.74H18.6895V10.7C18.8762 10.38 19.1362 10.1333 19.4695 9.96C19.8029 9.78667 20.1862 9.7 20.6195 9.7C21.0595 9.7 21.4395 9.79333 21.7595 9.98C22.0862 10.1667 22.3295 10.4433 22.4895 10.81C22.6829 10.4633 22.9595 10.1933 23.3195 10C23.6862 9.8 24.1029 9.7 24.5695 9.7ZM28.615 9.74H29.325V15H28.615V9.74ZM28.975 8.59C28.8283 8.59 28.705 8.54 28.605 8.44C28.505 8.34 28.455 8.22 28.455 8.08C28.455 7.94667 28.505 7.83 28.605 7.73C28.705 7.63 28.8283 7.58 28.975 7.58C29.1217 7.58 29.245 7.63 29.345 7.73C29.445 7.82333 29.495 7.93667 29.495 8.07C29.495 8.21667 29.445 8.34 29.345 8.44C29.245 8.54 29.1217 8.59 28.975 8.59ZM34.0705 14.68C33.9372 14.8 33.7705 14.8933 33.5705 14.96C33.3772 15.02 33.1739 15.05 32.9605 15.05C32.4672 15.05 32.0872 14.9167 31.8205 14.65C31.5539 14.3833 31.4205 14.0067 31.4205 13.52V10.34H30.4805V9.74H31.4205V8.59H32.1305V9.74H33.7305V10.34H32.1305V13.48C32.1305 13.7933 32.2072 14.0333 32.3605 14.2C32.5205 14.36 32.7472 14.44 33.0405 14.44C33.1872 14.44 33.3272 14.4167 33.4605 14.37C33.6005 14.3233 33.7205 14.2567 33.8205 14.17L34.0705 14.68ZM39.7575 12.59H35.3575C35.3975 13.1367 35.6075 13.58 35.9875 13.92C36.3675 14.2533 36.8475 14.42 37.4275 14.42C37.7542 14.42 38.0542 14.3633 38.3275 14.25C38.6008 14.13 38.8375 13.9567 39.0375 13.73L39.4375 14.19C39.2042 14.47 38.9108 14.6833 38.5575 14.83C38.2108 14.9767 37.8275 15.05 37.4075 15.05C36.8675 15.05 36.3875 14.9367 35.9675 14.71C35.5542 14.4767 35.2308 14.1567 34.9975 13.75C34.7642 13.3433 34.6475 12.8833 34.6475 12.37C34.6475 11.8567 34.7575 11.3967 34.9775 10.99C35.2042 10.5833 35.5108 10.2667 35.8975 10.04C36.2908 9.81333 36.7308 9.7 37.2175 9.7C37.7042 9.7 38.1408 9.81333 38.5275 10.04C38.9142 10.2667 39.2175 10.5833 39.4375 10.99C39.6575 11.39 39.7675 11.85 39.7675 12.37L39.7575 12.59ZM37.2175 10.31C36.7108 10.31 36.2842 10.4733 35.9375 10.8C35.5975 11.12 35.4042 11.54 35.3575 12.06H39.0875C39.0408 11.54 38.8442 11.12 38.4975 10.8C38.1575 10.4733 37.7308 10.31 37.2175 10.31ZM46.0127 7.58V15H45.3327V13.96C45.1193 14.3133 44.836 14.5833 44.4827 14.77C44.136 14.9567 43.7427 15.05 43.3027 15.05C42.8093 15.05 42.3627 14.9367 41.9627 14.71C41.5627 14.4833 41.2493 14.1667 41.0227 13.76C40.796 13.3533 40.6827 12.89 40.6827 12.37C40.6827 11.85 40.796 11.3867 41.0227 10.98C41.2493 10.5733 41.5627 10.26 41.9627 10.04C42.3627 9.81333 42.8093 9.7 43.3027 9.7C43.7293 9.7 44.1127 9.79 44.4527 9.97C44.7993 10.1433 45.0827 10.4 45.3027 10.74V7.58H46.0127ZM43.3627 14.42C43.7293 14.42 44.0593 14.3367 44.3527 14.17C44.6527 13.9967 44.886 13.7533 45.0527 13.44C45.226 13.1267 45.3127 12.77 45.3127 12.37C45.3127 11.97 45.226 11.6133 45.0527 11.3C44.886 10.9867 44.6527 10.7467 44.3527 10.58C44.0593 10.4067 43.7293 10.32 43.3627 10.32C42.9893 10.32 42.6527 10.4067 42.3527 10.58C42.0593 10.7467 41.826 10.9867 41.6527 11.3C41.486 11.6133 41.4027 11.97 41.4027 12.37C41.4027 12.77 41.486 13.1267 41.6527 13.44C41.826 13.7533 42.0593 13.9967 42.3527 14.17C42.6527 14.3367 42.9893 14.42 43.3627 14.42Z" fill="#F52A36"/>
</svg>
