<svg width="66" height="22" viewBox="0 0 66 22" fill="none" xmlns="http://www.w3.org/2000/svg">
<rect width="66" height="22" rx="11" fill="#EBB700" fill-opacity="0.2"/>
<path d="M15.9763 8V15H15.3663L10.8663 9.32V15H10.1263V8H10.7363L15.2463 13.68V8H15.9763ZM22.6911 12.59H18.2911C18.3311 13.1367 18.5411 13.58 18.9211 13.92C19.3011 14.2533 19.7811 14.42 20.3611 14.42C20.6878 14.42 20.9878 14.3633 21.2611 14.25C21.5344 14.13 21.7711 13.9567 21.9711 13.73L22.3711 14.19C22.1378 14.47 21.8444 14.6833 21.4911 14.83C21.1444 14.9767 20.7611 15.05 20.3411 15.05C19.8011 15.05 19.3211 14.9367 18.9011 14.71C18.4878 14.4767 18.1644 14.1567 17.9311 13.75C17.6978 13.3433 17.5811 12.8833 17.5811 12.37C17.5811 11.8567 17.6911 11.3967 17.9111 10.99C18.1378 10.5833 18.4444 10.2667 18.8311 10.04C19.2244 9.81333 19.6644 9.7 20.1511 9.7C20.6378 9.7 21.0744 9.81333 21.4611 10.04C21.8478 10.2667 22.1511 10.5833 22.3711 10.99C22.5911 11.39 22.7011 11.85 22.7011 12.37L22.6911 12.59ZM20.1511 10.31C19.6444 10.31 19.2178 10.4733 18.8711 10.8C18.5311 11.12 18.3378 11.54 18.2911 12.06H22.0211C21.9744 11.54 21.7778 11.12 21.4311 10.8C21.0911 10.4733 20.6644 10.31 20.1511 10.31ZM31.7686 9.74L29.7786 15H29.1086L27.4486 10.69L25.7886 15H25.1186L23.1386 9.74H23.8186L25.4686 14.21L27.1586 9.74H27.7686L29.4486 14.21L31.1186 9.74H31.7686ZM35.6048 8H36.3448V15H35.6048V8ZM41.2424 14.68C41.1091 14.8 40.9424 14.8933 40.7424 14.96C40.5491 15.02 40.3458 15.05 40.1324 15.05C39.6391 15.05 39.2591 14.9167 38.9924 14.65C38.7258 14.3833 38.5924 14.0067 38.5924 13.52V10.34H37.6524V9.74H38.5924V8.59H39.3024V9.74H40.9024V10.34H39.3024V13.48C39.3024 13.7933 39.3791 14.0333 39.5324 14.2C39.6924 14.36 39.9191 14.44 40.2124 14.44C40.3591 14.44 40.4991 14.4167 40.6324 14.37C40.7724 14.3233 40.8924 14.2567 40.9924 14.17L41.2424 14.68ZM46.9294 12.59H42.5294C42.5694 13.1367 42.7794 13.58 43.1594 13.92C43.5394 14.2533 44.0194 14.42 44.5994 14.42C44.926 14.42 45.226 14.3633 45.4994 14.25C45.7727 14.13 46.0094 13.9567 46.2094 13.73L46.6094 14.19C46.376 14.47 46.0827 14.6833 45.7294 14.83C45.3827 14.9767 44.9994 15.05 44.5794 15.05C44.0394 15.05 43.5594 14.9367 43.1394 14.71C42.726 14.4767 42.4027 14.1567 42.1694 13.75C41.936 13.3433 41.8194 12.8833 41.8194 12.37C41.8194 11.8567 41.9294 11.3967 42.1494 10.99C42.376 10.5833 42.6827 10.2667 43.0694 10.04C43.4627 9.81333 43.9027 9.7 44.3894 9.7C44.876 9.7 45.3127 9.81333 45.6994 10.04C46.086 10.2667 46.3894 10.5833 46.6094 10.99C46.8294 11.39 46.9394 11.85 46.9394 12.37L46.9294 12.59ZM44.3894 10.31C43.8827 10.31 43.456 10.4733 43.1094 10.8C42.7694 11.12 42.576 11.54 42.5294 12.06H46.2594C46.2127 11.54 46.016 11.12 45.6694 10.8C45.3294 10.4733 44.9027 10.31 44.3894 10.31ZM54.9445 9.7C55.6045 9.7 56.1212 9.89 56.4945 10.27C56.8745 10.65 57.0645 11.21 57.0645 11.95V15H56.3545V12.02C56.3545 11.4733 56.2212 11.0567 55.9545 10.77C55.6945 10.4833 55.3245 10.34 54.8445 10.34C54.2979 10.34 53.8679 10.51 53.5545 10.85C53.2412 11.1833 53.0845 11.6467 53.0845 12.24V15H52.3745V12.02C52.3745 11.4733 52.2412 11.0567 51.9745 10.77C51.7145 10.4833 51.3412 10.34 50.8545 10.34C50.3145 10.34 49.8845 10.51 49.5645 10.85C49.2512 11.1833 49.0945 11.6467 49.0945 12.24V15H48.3845V9.74H49.0645V10.7C49.2512 10.38 49.5112 10.1333 49.8445 9.96C50.1779 9.78667 50.5612 9.7 50.9945 9.7C51.4345 9.7 51.8145 9.79333 52.1345 9.98C52.4612 10.1667 52.7045 10.4433 52.8645 10.81C53.0579 10.4633 53.3345 10.1933 53.6945 10C54.0612 9.8 54.4779 9.7 54.9445 9.7Z" fill="#EBB700"/>
</svg>
